<svg width="850" height="150" viewBox="0 0 850 150" fill="none" xmlns="http://www.w3.org/2000/svg" role="img" aria-label="YOUSSEF TALIBI GitHub profile cyber cover">
  <defs>
    <linearGradient id="bg" x1="0" y1="0" x2="850" y2="150">
      <stop offset="0%" stop-color="#020617"/>
      <stop offset="45%" stop-color="#071A7A"/>
      <stop offset="100%" stop-color="#020617"/>
    </linearGradient>

    <radialGradient id="face-glow" cx="45%" cy="45%" r="70%">
      <stop offset="0%" stop-color="#7DD3FC" stop-opacity="0.95"/>
      <stop offset="42%" stop-color="#2563EB" stop-opacity="0.38"/>
      <stop offset="82%" stop-color="#A855F7" stop-opacity="0.18"/>
      <stop offset="100%" stop-color="#020617" stop-opacity="0"/>
    </radialGradient>

    <linearGradient id="visor" x1="585" y1="20" x2="748" y2="128">
      <stop offset="0%" stop-color="#E0F2FE" stop-opacity="0.95"/>
      <stop offset="35%" stop-color="#38BDF8" stop-opacity="0.55"/>
      <stop offset="68%" stop-color="#6366F1" stop-opacity="0.45"/>
      <stop offset="100%" stop-color="#D946EF" stop-opacity="0.75"/>
    </linearGradient>

    <linearGradient id="neon-stroke" x1="0" y1="0" x2="850" y2="0">
      <stop offset="0%" stop-color="#00E5FF"/>
      <stop offset="45%" stop-color="#3B82F6"/>
      <stop offset="78%" stop-color="#A855F7"/>
      <stop offset="100%" stop-color="#22D3EE"/>
    </linearGradient>

    <linearGradient id="scanner-gradient" x1="0%" y1="0%" x2="100%" y2="0%">
      <stop offset="0%" stop-color="#00E5FF" stop-opacity="0"/>
      <stop offset="50%" stop-color="#00E5FF" stop-opacity="0.65"/>
      <stop offset="100%" stop-color="#A855F7" stop-opacity="0"/>
    </linearGradient>

    <pattern id="grid" width="22" height="22" patternUnits="userSpaceOnUse">
      <path d="M22 0H0V22" stroke="#7DD3FC" stroke-width="0.55" stroke-opacity="0.10"/>
    </pattern>

    <filter id="glow" x="-50%" y="-50%" width="200%" height="200%">
      <feGaussianBlur stdDeviation="2.4" result="blur"/>
      <feMerge>
        <feMergeNode in="blur"/>
        <feMergeNode in="SourceGraphic"/>
      </feMerge>
    </filter>

    <filter id="bigGlow" x="-80%" y="-80%" width="260%" height="260%">
      <feGaussianBlur stdDeviation="7" result="blur"/>
      <feColorMatrix in="blur" type="matrix" values="0 0 0 0 0.0 0 0 0 0 0.7 0 0 0 0 1 0 0 0 0.82 0"/>
      <feMerge>
        <feMergeNode/>
        <feMergeNode in="SourceGraphic"/>
      </feMerge>
    </filter>

    <filter id="glitch">
      <feTurbulence type="fractalNoise" baseFrequency="0.012 0.12" numOctaves="1" seed="7" result="warp">
        <animate attributeName="baseFrequency" dur="0.55s" values="0.012 0.12;0.035 0.35;0.012 0.12" repeatCount="indefinite"/>
      </feTurbulence>
      <feDisplacementMap in="SourceGraphic" in2="warp" scale="2.5" xChannelSelector="R" yChannelSelector="G"/>
    </filter>

    <clipPath id="text-clip">
      <rect width="0" height="150">
        <animate attributeName="width" dur="4.8s" values="0;640;640;0" keyTimes="0;0.48;0.82;1" repeatCount="indefinite"/>
      </rect>
    </clipPath>

    <clipPath id="shine-clip">
      <path d="M587 53C604 19 650 11 694 31C732 48 753 88 742 119C715 132 657 133 611 119C585 110 574 83 587 53Z"/>
    </clipPath>

    <style>
      .ascii {
        font-family: "Courier New", monospace;
        font-size: 18px;
        font-weight: 800;
        letter-spacing: 1px;
        white-space: pre;
      }

      .name {
        font-family: Inter, Segoe UI, Arial, sans-serif;
        font-size: 31px;
        font-weight: 900;
        letter-spacing: 4px;
      }

      .subtitle {
        font-family: Inter, Segoe UI, Arial, sans-serif;
        font-size: 10px;
        font-weight: 700;
        letter-spacing: 3px;
      }

      .line {
        stroke-dasharray: 760;
        stroke-dashoffset: 760;
        animation: draw 4.8s ease-in-out infinite;
      }

      .pulse {
        animation: pulse 2.8s ease-in-out infinite;
      }

      .flicker {
        animation: flicker 1.3s steps(3) infinite;
      }

      .scanner {
        animation: scan 4.8s ease-in-out infinite;
      }

      .float {
        animation: float 3.8s ease-in-out infinite;
      }

      @keyframes draw {
        0% { stroke-dashoffset: 760; opacity: 0; }
        35% { stroke-dashoffset: 0; opacity: 1; }
        78% { opacity: 1; }
        100% { opacity: 0; }
      }

      @keyframes pulse {
        0%,100% { opacity: .45; }
        50% { opacity: 1; }
      }

      @keyframes flicker {
        0% { opacity: .12; transform: translateX(0); }
        12% { opacity: .42; transform: translateX(1px); }
        17% { opacity: .18; transform: translateX(-1px); }
        52% { opacity: .34; }
        100% { opacity: .18; }
      }

      @keyframes scan {
        0% { transform: translateX(-120px); opacity: 0; }
        14% { opacity: .9; }
        50% { transform: translateX(850px); opacity: .8; }
        86% { opacity: .9; }
        100% { transform: translateX(-120px); opacity: 0; }
      }

      @keyframes float {
        0%,100% { transform: translateY(0); }
        50% { transform: translateY(-4px); }
      }
    </style>
  </defs>

  <rect width="850" height="150" rx="18" fill="url(#bg)"/>
  <rect width="850" height="150" rx="18" fill="url(#grid)"/>

  <path d="M0 119C115 91 228 97 359 121C532 153 686 151 850 101V150H0V119Z" fill="#020617" opacity=".45"/>

  <g opacity=".45" filter="url(#bigGlow)">
    <circle cx="72" cy="35" r="42" fill="#2563EB"/>
    <circle cx="512" cy="120" r="65" fill="#7C3AED" opacity=".32"/>
    <circle cx="670" cy="75" r="78" fill="#00E5FF" opacity=".26"/>
  </g>

  <g filter="url(#glow)">
    <g clip-path="url(#text-clip)">
      <text x="31" y="34" class="ascii" fill="#38BDF8" opacity=".28">██╗   ██╗ ██████╗ ██╗   ██╗███████╗███████╗███████╗███████╗</text>
      <text x="31" y="55" class="ascii" fill="#38BDF8" opacity=".42">╚██╗ ██╔╝██╔═══██╗██║   ██║██╔════╝██╔════╝██╔════╝██╔════╝</text>
      <text x="31" y="76" class="ascii" fill="#38BDF8" opacity=".62"> ╚████╔╝ ██║   ██║██║   ██║███████╗███████╗█████╗  █████╗  </text>
      <text x="31" y="97" class="ascii" fill="#7DD3FC" opacity=".82">  ╚██╔╝  ██║   ██║██║   ██║╚════██║╚════██║██╔══╝  ██╔══╝  </text>
      <text x="31" y="118" class="ascii" fill="#E0F2FE">   ██║   ╚██████╔╝╚██████╔╝███████║███████║███████╗██║     </text>
    </g>

    <text x="34" y="95" class="name" fill="#FFFFFF">YOUSSEF TALIBI</text>
    <text x="38" y="123" class="subtitle" fill="#BAE6FD" opacity=".86">CYBER PROFILE COVER • CREATIVE DEVELOPER</text>
    <rect x="34" y="106" width="395" height="2.5" rx="2" fill="url(#neon-stroke)" class="pulse"/>
  </g>

  <g filter="url(#glitch)" opacity=".26">
    <text x="34" y="95" class="name" fill="#FF4FD8">YOUSSEF TALIBI</text>
    <text x="38" y="123" class="subtitle" fill="#00E5FF">CYBER PROFILE COVER • CREATIVE DEVELOPER</text>
  </g>

  <!-- faceless neon avatar, matching the last generated image -->
  <g transform="translate(562 4)" class="float">
    <ellipse cx="103" cy="78" rx="95" ry="63" fill="url(#face-glow)" opacity=".72"/>
    <path d="M67 42C88 16 132 14 166 33C204 54 214 100 189 126C158 137 104 135 67 119C43 109 43 73 67 42Z" fill="#030712" opacity=".74"/>
    <path d="M66 40C84 17 129 9 168 31C207 53 218 100 188 126C155 137 99 135 65 119C40 108 42 70 66 40Z" fill="url(#visor)" opacity=".36" stroke="#93C5FD" stroke-width="1.6"/>
    <path d="M51 84C89 57 136 42 195 32" stroke="#7DD3FC" stroke-width="5.8" stroke-linecap="round" filter="url(#bigGlow)" class="line"/>
    <path d="M51 84C90 58 137 43 195 32" stroke="#A855F7" stroke-width="9" stroke-linecap="round" opacity=".46" class="line"/>
    <path d="M57 90C94 69 145 53 202 44" stroke="#E0F2FE" stroke-width="2.2" stroke-linecap="round" opacity=".95"/>
    <path d="M65 121C110 135 158 133 198 112" stroke="#22D3EE" stroke-width="3" stroke-linecap="round" opacity=".75" filter="url(#glow)"/>
    <g clip-path="url(#shine-clip)" opacity=".32">
      <rect x="26" y="35" width="218" height="14" fill="#FFFFFF" transform="rotate(25 26 35)">
        <animate attributeName="x" dur="3.2s" values="-90;230" repeatCount="indefinite"/>
      </rect>
    </g>
    <circle cx="197" cy="42" r="4.5" fill="#FFFFFF" filter="url(#bigGlow)" class="pulse"/>
    <circle cx="55" cy="84" r="3.5" fill="#67E8F9" filter="url(#glow)"/>
    <path d="M81 119C92 137 171 137 193 119L220 150H48L81 119Z" fill="#020617" opacity=".96"/>
    <path d="M57 143C88 122 169 120 217 143" stroke="#38BDF8" stroke-width="2" opacity=".62"/>
  </g>

  <rect class="scanner" y="0" width="110" height="150" fill="url(#scanner-gradient)" opacity=".72"/>
  <rect x="1" y="1" width="848" height="148" rx="17" stroke="url(#neon-stroke)" stroke-opacity=".48" stroke-width="2"/>
</svg>
